<svg width="30" height="30" viewBox="0 0 30 30" fill="none" xmlns="http://www.w3.org/2000/svg">
<rect width="30" height="30" fill="#E5E5E5"/>
<rect width="30" height="30" rx="7" fill="white"/>
<path d="M21.81 8.16V11.19H27V8.16H21.81ZM9.27 12.38V15.407H14.459V12.38H9.269H9.27ZM21.81 12.38V15.407H27V12.38H21.81ZM9.27 16.594V19.621H14.459V16.594H9.269H9.27ZM15.541 16.594V19.621H20.731V16.594H15.541V16.594ZM21.811 16.594V19.621H27V16.594H21.81H21.811ZM3 20.81V23.839H8.19V20.809H3V20.81ZM9.27 20.81V23.839H14.459V20.809H9.269L9.27 20.81ZM15.541 20.81V23.839H20.731V20.809H15.541V20.81ZM21.811 20.81V23.839H27V20.809H21.81L21.811 20.81Z" fill="#4B0082"/>
</svg>
