<svg width="1000" height="1000"  fill="none" xmlns="http://www.w3.org/2000/svg" xmlns:xlink="http://www.w3.org/1999/xlink">
        
                                <path d="M19.2425 12V14.319H24V12H19.2425ZM7.7475 15.2298V17.5465H12.5041V15.2298H7.7475ZM19.2425 15.2298V17.5465H24V15.2298H19.2425ZM7.7475 18.455V20.7717H12.5041V18.455H7.7475ZM13.4959 18.455V20.7717H18.2534V18.455H13.4959ZM19.2434 18.455V20.7717H24V18.455H19.2434ZM2 21.6817V24H6.7575V21.681L2 21.6817ZM7.7475 21.6817V24H12.5041V21.681H7.74658L7.7475 21.6817ZM13.4959 21.6817V24H18.2534V21.681L13.4959 21.6817ZM19.2434 21.6817V24H24V21.681H19.2425L19.2434 21.6817Z" fill="#4B0082"/>

                            </svg>